<?xml version="1.0" encoding="utf-8"?>
<!-- Generator: Adobe Illustrator 25.2.3, SVG Export Plug-In . SVG Version: 6.00 Build 0)  -->
<svg version="1.1" xmlns="http://www.w3.org/2000/svg" xmlns:xlink="http://www.w3.org/1999/xlink" x="0px" y="0px"
	 viewBox="0 0 138 138" enable-background="new 0 0 138 138" xml:space="preserve">
<g id="Capa_1">
	<g>
		<circle fill="#FF0000" cx="69" cy="69" r="69"/>
	</g>
</g>
<g id="Capa_2">
	<path fill="#FFFFFF" d="M103.5,86.1L82,65.1l19.2-19.7c3.3-3.4,3.2-8.7-0.2-12c-3.4-3.3-8.7-3.2-12,0.2L69.8,53.3L50.4,34.5
		c-3.4-3.3-8.7-3.2-12,0.2c-3.3,3.4-3.2,8.7,0.2,12l19.3,18.8L37.4,86.6c-3.3,3.4-3.2,8.7,0.2,12c1.7,1.6,3.8,2.4,5.9,2.4
		c2.2,0,4.4-0.9,6.1-2.6l20.6-21.1l21.5,20.9c1.7,1.6,3.8,2.4,5.9,2.4c2.2,0,4.4-0.9,6.1-2.6C106.9,94.7,106.8,89.4,103.5,86.1z"/>
</g>
</svg>
