<?xml version="1.0" encoding="utf-8"?>
<!-- Generator: Adobe Illustrator 25.2.3, SVG Export Plug-In . SVG Version: 6.00 Build 0)  -->
<svg version="1.1" id="Capa_1" xmlns="http://www.w3.org/2000/svg" xmlns:xlink="http://www.w3.org/1999/xlink" x="0px" y="0px"
	 viewBox="0 0 265 43.4" enable-background="new 0 0 265 43.4" xml:space="preserve">
<path fill-rule="evenodd" clip-rule="evenodd" fill="#00979D" d="M88.9,21.7C88.9,9.7,79.1,0,67,0c-1.1,0-2.3,0.1-3.4,0.3
	C54.3,1.6,48,8.5,44.5,13.9C40.9,8.5,34.6,1.6,25.3,0.3C24.2,0.1,23,0,21.9,0C9.8,0,0,9.7,0,21.7c0,12,9.8,21.7,21.9,21.7
	c1.1,0,2.3-0.1,3.4-0.3c9.4-1.4,15.7-8.3,19.2-13.6c3.5,5.3,9.8,12.3,19.2,13.6c1.1,0.2,2.3,0.3,3.4,0.3
	C79.1,43.4,88.9,33.7,88.9,21.7z M24.2,35.5c-0.8,0.1-1.5,0.2-2.3,0.2c-8,0-14.4-6.3-14.4-14c0-7.7,6.5-14,14.4-14
	c0.8,0,1.5,0.1,2.3,0.2c8.9,1.3,14.3,10.3,16.1,13.8C38.4,25.3,33,34.2,24.2,35.5z M64.7,7.9c-8.9,1.3-14.3,10.3-16.1,13.8
	c1.8,3.6,7.2,12.5,16.1,13.8c0.8,0.1,1.5,0.2,2.3,0.2c7.9,0,14.4-6.3,14.4-14c0-7.7-6.4-14-14.4-14C66.2,7.7,65.5,7.8,64.7,7.9z
	 M15.7,19.4H29v4.2H15.7V19.4z M73.1,23.6h-4.5v4.4h-4.3v-4.4h-4.5v-4.2h4.5V15h4.3v4.4h4.5V23.6z"/>
<rect x="102.8" fill="#00979D" width="162.2" height="43.4"/>
<path fill="#FFFFFF" d="M133.7,27.3c-1.7,1.2-3.3,1.8-5.3,1.8c-3.2,0-4.5-2.4-4.5-6.9c0-4.5,1.5-6.6,4.4-6.6c1.7,0,3,0.5,4.7,1.8
	l1.7-4.4c-2-1.2-4-1.8-6.2-1.8c-6.3,0-10.3,4-10.3,11c0,7.1,3.2,11.1,9.6,11.1c2.5,0,4.5-0.6,7.1-1.9L133.7,27.3z M141.1,33h5.3
	v-6.8h2.7l3.2,6.8h6.3l-4.2-7.8c2.3-1.3,3.5-3.5,3.5-6.4c0-4.1-2.2-7.2-8.2-7.2h-8.6V33z M149.2,22h-2.8v-6.1h2.7
	c2.5,0,3.2,1,3.2,2.9C152.3,21.1,151,22,149.2,22z M164.4,11.6V33h15.5v-4.4h-10.2v-4.4h9.3v-4.3h-9.3v-4.1H180v-4.3H164.4z
	 M190.6,33l1.1-4.4h6.2l1.2,4.4h5.6l-6.8-21.4h-6L185.2,33H190.6z M196.8,24.5h-4.1l1.9-7.8L196.8,24.5z M226.7,11.6h-18v4.3h6.3V33
	h5.3V15.9h6.3V11.6z M232.8,11.6V33h15.5v-4.4h-10.2v-4.4h9.3v-4.3h-9.3v-4.1h10.3v-4.3H232.8z"/>
</svg>
